<svg width="28" height="24" viewBox="0 0 28 24" fill="none" xmlns="http://www.w3.org/2000/svg">
<path d="M8.7955 24C19.362 24 25.1423 14.7642 25.1423 6.76892C25.1423 6.51047 25.1423 6.24833 25.1318 5.98988C26.2571 5.13052 27.2284 4.06657 28 2.8479C26.9488 3.33683 25.8348 3.65906 24.6943 3.80415C25.8957 3.0466 26.7955 1.85466 27.2265 0.449871C26.0977 1.15529 24.8623 1.6505 23.5742 1.91379C22.7083 0.940965 21.5625 0.296497 20.3141 0.0802122C19.0658 -0.136072 17.7848 0.0878992 16.6693 0.717433C15.5539 1.34697 14.6664 2.34693 14.1443 3.56243C13.6222 4.77793 13.4946 6.14114 13.7812 7.44088C11.497 7.32006 9.26243 6.69409 7.22232 5.60358C5.18222 4.51307 3.3822 2.98237 1.939 1.11076C1.20635 2.44561 0.982754 4.02457 1.31363 5.52701C1.64451 7.02946 2.50505 8.34274 3.7205 9.20017C2.80969 9.16753 1.91891 8.90953 1.12 8.44698V8.53006C1.12157 9.92841 1.58079 11.2833 2.42003 12.3657C3.25927 13.4481 4.42706 14.1917 5.726 14.4707C5.23296 14.6139 4.72365 14.6854 4.21225 14.683C3.85172 14.6841 3.49192 14.6489 3.13775 14.5777C3.50488 15.7815 4.21973 16.8339 5.18218 17.5877C6.14464 18.3414 7.30649 18.7588 8.505 18.7812C6.46897 20.4681 3.95395 21.383 1.365 21.3786C0.908811 21.3806 0.45294 21.3529 0 21.2955C2.62765 23.0627 5.67927 24.001 8.7955 24Z" fill="black"/>
</svg>
